<?xml version="1.0" encoding="utf-8"?>
<svg version="1.1" xmlns="http://www.w3.org/2000/svg" xmlns:xlink="http://www.w3.org/1999/xlink" x="0px" y="0px" width="1068px" height="100px" viewBox="0 0 1068 100" enable-background="new 0 0 1068 100" xml:space="preserve">
<line fill="none" stroke="#332900" x1="0" y1="17" x2="1068" y2="17"/>
<path fill="none" stroke="#332900" d="M153.65,17c6.5,0,10,3,10,10v12c0,6.5,3,10,10,10H619c6.5,0,10-3,10-10V27c0-6.5,3-10,10-10"/>
<path fill="none" stroke="#332900" d="M704.35,17c6.5,0,10,3,10,10v12c0,6.5,3,10,10,10h120c6.5,0,10-3,10-10V27c0-6.5,3-10,10-10"/>
<path fill="none" stroke="#332900" d="M865.35,17c6.5,0,10,3,10,10v12c0,6.5,3,10,10,10h143.5c6.5,0,10-3,10-10V27c0-6.5,3-10,10-10"/>
<path fill="none" stroke="#332900" d="M228.82,49c6.5,0,10,3,10,10v12c0,6.5,3,10,10,10h136c6.5,0,10-3,10-10V59c0-6.5,3-10,10-10"/>
<path fill="none" stroke="#332900" d="M470.82,49c6.5,0,10,3,10,10v12c0,6.5,3,10,10,10h108c6.5,0,10-3,10-10V59c0-6.5,3-10,10-10"/>
<polygon fill="#332900" stroke="#332900" points="8.5,17 0.5,13 0.5,21"/>
<polygon fill="#332900" stroke="#332900" points="16.5,17 8.5,13 8.5,21"/>
<polygon fill="#332900" stroke="#332900" points="1058,17 1050,13 1050,21"/>
<polygon fill="#332900" stroke="#332900" points="1067.5,21 1067.5,13 1059.5,17"/>
<a id="scheme" xlink:href="#scheme">
	<path fill="#332900" stroke="#332900" d="M41.5,2.5h50c5.5,0,10,4.5,10,10v12c0,5.5-4.5,10-10,10h-50c-5.5,0-10-4.5-10-10v-12C31.5,7,36,2.5,41.5,2.5z"/>
	<path fill="#FFDB4D" stroke="#332900" d="M40,0.5h50c5.5,0,10,4.5,10,10v12c0,5.5-4.5,10-10,10H39.5c-5.5,0-10-4.5-10-10v-12C30,5,34,0.5,40,0.5z"/>
	<text transform="matrix(1 0 0 1 64 20)" fill="#141000" text-anchor="middle" font-weight="bold" font-family="'DejaVu Sans'" font-size="12px">scheme</text>
</a>
<a id="scheme-delimiter" xlink:href="#scheme-delimiter">
	<path fill="#332900" stroke="#332900" d="M130,2.5h6c5.5,0,10,4.5,10,10v12c0,5.5-4.5,10-10,10h-6c-5.5,0-10-4.5-10-10v-12C120,7,124,2.5,130,2.5z"/>
	<path fill="#FFDB4D" stroke="#332900" d="M127.5,0.5h6c5.5,0,10,4.5,10,10v12c0,5.5-4.5,10-10,10h-6c-5.5,0-10-4.5-10-10v-12C117.5,5,122,0.5,127.5,0.5z"/>
	<text transform="matrix(1 0 0 1 130 20)" fill="#141000" text-anchor="middle" font-weight="bold" font-family="'DejaVu Sans'" font-size="12px">:</text>
</a>
<a id="slashes" xlink:href="#slashes">
	<path fill="#332900" stroke="#332900" d="M194,35h17c5.5,0,10,4.5,10,10v12c0,5.5-4.5,10-10,10h-17c-5.5,0-10-4.5-10-10V45C184,39,189,35,194,35z"/>
	<path fill="#FFDB4D" stroke="#332900" d="M192.35,32.75h17c5.5,0,10,4.5,10,10v12c0,5.5-4.5,10-10,10h-17c-5.5,0-10-4.5-10-10v-12c-0.35-5.75,4.65-10,9.65-10H192.35z"/>
	<text transform="matrix(1 0 0 1 200 52)" fill="#141000" text-anchor="middle" font-weight="bold" font-family="'DejaVu Sans'" font-size="12px">//</text>
</a>
<a id="userinfo" xlink:href="#userinfo">
	<rect x="260" y="67.5" fill="#332900" stroke="#332900" width="67" height="32"/>
	<rect x="258" y="65.5" fill="#FFEC9E" stroke="#332900" width="67" height="32"/>
	<text transform="matrix(1 0 0 1 291 86)" fill="#1A1400" text-anchor="middle" font-family="'DejaVu Sans'" font-size="12px">userinfo</text>
</a>
<a id="at-sign" xlink:href="#at-sign">
	<path fill="#332900" stroke="#332900" d="M356,67.5h11c5.5,0,10,4.5,10,10v12c0,5.5-4.5,10-10,10h-11c-5.5,0-10-4.5-10-10v-12C346,72,351,67.5,356,67.5z"/>
	<path fill="#FFDB4D" stroke="#332900" d="M354,65.5h11c5.5,0,10,4.5,10,10v12c0,5.5-4.5,10-10,10h-11c-5.5,0-10-4.5-10-10v-12C344,70,349,65.5,354,65.5z"/>
	<text transform="matrix(1 0 0 1 360 85)" fill="#141000" text-anchor="middle" font-weight="bold" font-family="'DejaVu Sans'" font-size="12px">@</text>
</a>
<a id="host" xlink:href="#host">
	<rect x="416" y="35" fill="#332900" stroke="#332900" width="47" height="32"/>
	<rect x="414" y="33" fill="#FFEC9E" stroke="#332900" width="47" height="32"/>
	<text transform="matrix(1 0 0 1 437 53)" fill="#1A1400" text-anchor="middle" font-family="'DejaVu Sans'" font-size="12px">host</text>
</a>
<a id="port-delimiter" xlink:href="#port-delimiter">
	<path fill="#332900" stroke="#332900" d="M512,67.5h5c5.5,0,10,4.5,10,10v12c0,5.5-4.5,10-10,10h-5c-5.5,0-10-4.5-10-10v-12C502,72,507,67.5,512,67.5z"/>
	<path fill="#FFDB4D" stroke="#332900" d="M510,65.5h5c5.5,0,10,4.5,10,10v12c0,5.5-4.5,10-10,10h-5c-5.5,0-10-4.5-10-10v-12C500,70,505,65.5,510,65.5z"/>
	<text transform="matrix(1 0 0 1 512 85)" fill="#141000" text-anchor="middle" font-weight="bold" font-family="'DejaVu Sans'" font-size="12px">:</text>
</a>
<a id="port" xlink:href="#port">
	<rect x="546" y="67.5" fill="#332900" stroke="#332900" width="46" height="32"/>
	<rect x="544" y="65.5" fill="#FFEC9E" stroke="#332900" width="46" height="32"/>
	<text transform="matrix(1 0 0 1 567 86)" fill="#1A1400" text-anchor="middle" font-family="'DejaVu Sans'" font-size="12px">port</text>
</a>
<a id="path" xlink:href="#path">
	<rect x="650" y="2.5" fill="#332900" stroke="#332900" width="47" height="32"/>
	<rect x="648" y="0.5" fill="#FFEC9E" stroke="#332900" width="47" height="32"/>
	<text transform="matrix(1 0 0 1 672 21)" fill="#1A1400" text-anchor="middle" font-family="'DejaVu Sans'" font-size="12px">path</text>
</a>
<a id="question-mark" xlink:href="#question-mark">
	<path fill="#332900" stroke="#332900" d="M746.5,34.75h7c5.5,0,10,4.5,10,10v12c0,5.5-4.5,10-10,10h-7c-5.5,0-10-4.5-10-10v-12C736.5,39,741,34.75,746.5,34.75z"/>
	<path fill="#FFDB4D" stroke="#332900" d="M744.5,32.75h7c5.5,0,10,4.5,10,10v12c0,5.5-4.5,10-10,10h-7c-5.5,0-10-4.5-10-10v-12c0-5.75,4.5-10,10.5-10H744.5z"/>
	<text transform="matrix(1 0 0 1 748 53)" fill="#141000" text-anchor="middle" font-weight="bold" font-family="'DejaVu Sans'" font-size="12px">?</text>
</a>
<a id="query" xlink:href="#query">
	<rect x="783" y="35" fill="#332900" stroke="#332900" width="53" height="32"/>
	<rect x="781" y="33" fill="#FFEC9E" stroke="#332900" width="53" height="32"/>
	<text transform="matrix(1 0 0 1 807 53)" fill="#1A1400" text-anchor="middle" font-family="'DejaVu Sans'" font-size="12px">query</text>
</a>
<a id="hash" xlink:href="#hash">
	<path fill="#332900" stroke="#332900" d="M906.5,35h10c5.5,0,10,4.5,10,10v12c0,5.5-4.5,10-10,10h-10c-5.5,0-10-4.5-10-10V44.75C896.5,39,901,35,906.5,35z"/>
	<path fill="#FFDB4D" stroke="#332900" d="M904.5,33h10c5.5,0,10,4.5,10,10v12c0,5.5-4.5,10-10,10h-10c-5.5,0-10-4.5-10-10V42.75C894.5,37,900,33,904.5,33z"/>
	<text transform="matrix(1 0 0 1 909 53)" fill="#141000" text-anchor="middle" font-weight="bold" font-family="'DejaVu Sans'" font-size="12px">#</text>
</a>
<a id="fragment" xlink:href="#fragment">
	<rect x="946" y="35" fill="#332900" stroke="#332900" width="76" height="32"/>
	<rect x="944" y="33" fill="#FFEC9E" stroke="#332900" width="76" height="32"/>
	<text transform="matrix(1 0 0 1 982 53)" fill="#1A1400" text-anchor="middle" font-family="'DejaVu Sans'" font-size="12px">fragment</text>
</a>
</svg>
